<?xml version="1.0" encoding="utf-8"?>
<!-- Generator: Adobe Illustrator 21.0.0, SVG Export Plug-In . SVG Version: 6.00 Build 0)  -->
<svg version="1.1" id="图层_1" xmlns="http://www.w3.org/2000/svg" xmlns:xlink="http://www.w3.org/1999/xlink" x="0px" y="0px"
	 viewBox="0 0 429.33 34" style="enable-background:new 0 0 429.33 34;" xml:space="preserve">
<style type="text/css">
	.st0{fill:#EFBD4C;}
</style>
<g>
	<path class="st0" d="M19.11,9.41c0.95,0.17,1.44,0.25,1.46,0.25c0.15,0,0.25-0.08,0.32-0.23l0.06-0.23h0.19
		c0.23,1.77,0.38,3.42,0.42,4.92l-0.17,0.02c-0.61-1.71-1.25-2.87-1.86-3.48c-0.78-0.78-1.82-1.16-3.15-1.16
		c-1.48,0-2.72,0.57-3.72,1.69c-1.01,1.12-1.52,2.79-1.52,5c0,2.09,0.51,3.82,1.52,5.24c0.99,1.41,2.24,2.13,3.72,2.13
		c1.25,0,2.34-0.46,3.25-1.37c0.84-0.84,1.56-2.13,2.18-3.86L22,18.4c-0.04,0.7-0.13,1.54-0.27,2.53c-0.15,0.99-0.27,1.56-0.36,1.71
		c-1.8,0.82-3.51,1.25-5.17,1.25c-2.11,0-3.95-0.66-5.49-1.99c-1.54-1.31-2.32-3.04-2.32-5.22c0-2.09,0.76-3.87,2.3-5.34
		c1.54-1.46,3.44-2.2,5.74-2.2C17.25,9.15,18.16,9.24,19.11,9.41z"/>
	<path class="st0" d="M23.6,23.6v-0.17l0.76-0.06c0.78-0.06,0.95-0.17,1.06-0.59c0.08-0.34,0.13-1.04,0.13-2.11v-8.24
		c0-1.08-0.04-1.77-0.13-2.11c-0.11-0.42-0.27-0.53-1.06-0.59L23.6,9.66V9.49h6.38v0.17l-0.76,0.06c-0.78,0.06-0.95,0.17-1.06,0.59
		c-0.08,0.34-0.13,1.03-0.13,2.11v8.24c0,1.04,0.04,1.71,0.13,2.05c0.11,0.44,0.32,0.61,1.1,0.61c1.73,0,2.96-0.17,3.65-0.53
		c0.25-0.13,0.49-0.3,0.72-0.53c0.38-0.38,0.93-1.16,1.67-2.37l0.15,0.04l-0.82,3.65H23.6z"/>
	<path class="st0" d="M36.8,9.49h6.38v0.17l-0.76,0.06c-0.78,0.06-0.95,0.17-1.06,0.59c-0.08,0.34-0.13,1.03-0.13,2.11v8.24
		c0,1.08,0.04,1.77,0.13,2.11c0.11,0.42,0.27,0.53,1.06,0.59l0.76,0.06v0.17H36.8v-0.17l0.76-0.06c0.78-0.06,0.95-0.17,1.06-0.59
		c0.08-0.34,0.13-1.04,0.13-2.11v-8.24c0-1.08-0.04-1.77-0.13-2.11c-0.11-0.42-0.27-0.53-1.06-0.59L36.8,9.66V9.49z"/>
	<path class="st0" d="M55.57,9.41c0.95,0.17,1.44,0.25,1.46,0.25c0.15,0,0.25-0.08,0.32-0.23l0.06-0.23h0.19
		c0.23,1.77,0.38,3.42,0.42,4.92l-0.17,0.02c-0.61-1.71-1.25-2.87-1.86-3.48c-0.78-0.78-1.82-1.16-3.15-1.16
		c-1.48,0-2.72,0.57-3.72,1.69c-1.01,1.12-1.52,2.79-1.52,5c0,2.09,0.51,3.82,1.52,5.24c0.99,1.41,2.24,2.13,3.72,2.13
		c1.25,0,2.34-0.46,3.25-1.37c0.84-0.84,1.56-2.13,2.18-3.86l0.19,0.08c-0.04,0.7-0.13,1.54-0.27,2.53
		c-0.15,0.99-0.27,1.56-0.36,1.71c-1.79,0.82-3.51,1.25-5.17,1.25c-2.11,0-3.95-0.66-5.49-1.99c-1.54-1.31-2.32-3.04-2.32-5.22
		c0-2.09,0.76-3.87,2.3-5.34c1.54-1.46,3.44-2.2,5.74-2.2C53.71,9.15,54.62,9.24,55.57,9.41z"/>
	<path class="st0" d="M68.17,9.49h5.32v0.13l-0.65,0.15c-0.59,0.15-1.01,0.27-1.25,0.42s-0.63,0.49-1.18,1.04l-3.86,3.91l4.9,6.17
		c0.84,1.06,1.5,1.69,1.94,1.92c0.21,0.11,0.65,0.19,1.31,0.25v0.15l-1.18,0.06c-1.2,0.06-1.9,0.11-2.11,0.11
		c-0.78,0-1.22-0.21-2.07-1.29l-3.89-5c-0.51-0.61-0.57-0.7-0.89-0.7H64.5v3.86c0,1.08,0.04,1.77,0.13,2.11
		c0.11,0.42,0.27,0.53,1.06,0.59l0.76,0.06v0.17h-6.38v-0.17l0.76-0.06c0.78-0.06,0.95-0.17,1.06-0.59
		c0.08-0.34,0.13-1.04,0.13-2.11v-8.24c0-1.08-0.04-1.77-0.13-2.11c-0.11-0.42-0.27-0.53-1.06-0.59l-0.76-0.06V9.49h6.38v0.17
		l-0.76,0.06c-0.78,0.06-0.95,0.17-1.06,0.59c-0.08,0.34-0.13,1.03-0.13,2.11v4.16l1.31-1.25c0.87-0.84,1.8-1.86,2.75-3.06
		c0.95-1.18,1.44-1.88,1.44-2.07c0-0.11-0.32-0.25-0.95-0.4l-0.87-0.19V9.49z"/>
	<path class="st0" d="M81.53,23.47v0.13h-5.07v-0.13l0.55-0.13c0.61-0.15,1.06-0.36,1.31-0.63s0.57-0.89,0.93-1.86l3.72-9.8
		l-0.25-0.55l0.02-0.08c0.32-0.15,0.68-0.4,1.12-0.74c0.44-0.32,0.72-0.57,0.87-0.76l0.11,0.02l4.08,12.52
		c0.25,0.78,0.49,1.27,0.68,1.46c0.19,0.21,0.57,0.36,1.1,0.42l0.7,0.08v0.17h-6.59v-0.17l0.8-0.08c0.7-0.06,1.06-0.3,1.06-0.68
		c0-0.15-0.04-0.38-0.15-0.7l-1.23-3.89h-4.35l-0.34,0.97c-0.63,1.82-0.95,2.98-0.95,3.5c0,0.34,0.17,0.55,1.08,0.74L81.53,23.47z
		 M83.96,13.89c-0.32-1.04-0.59-1.82-0.8-2.34l-2.09,6.12h4.08L83.96,13.89z"/>
	<path class="st0" d="M101.04,22.97c-0.84,0.42-2.09,0.63-3.74,0.63h-5.96v-0.17l0.76-0.06c0.78-0.06,0.95-0.17,1.06-0.59
		c0.08-0.34,0.13-1.04,0.13-2.11v-8.24c0-1.08-0.04-1.77-0.13-2.11c-0.11-0.42-0.27-0.53-1.06-0.59l-0.76-0.06V9.47
		c1.67,0.02,3.17,0.02,4.54,0.02c2.3,0,3.95,0.32,4.96,0.93c1.01,0.63,1.52,1.44,1.52,2.39c0,1.33-1.1,2.3-2.89,2.83v0.06
		c0.99,0.21,1.86,0.63,2.6,1.27c0.74,0.65,1.1,1.5,1.1,2.58C103.18,21.07,102.31,22.31,101.04,22.97z M98.97,10.65
		c-0.61-0.61-1.58-0.93-2.89-0.91h-0.21c-0.06,0.36-0.08,0.89-0.08,1.58v4.81c2.47,0,4.12-1.01,4.12-3.27
		C99.9,12.03,99.59,11.29,98.97,10.65z M99.25,17.2c-0.91-0.61-2.05-0.89-3.46-0.78v4.25c0,1.06,0.04,1.75,0.13,2.09
		c0.11,0.44,0.38,0.59,1.25,0.59h0.06c2.01,0,3.36-1.44,3.36-3.44C100.58,18.72,100.13,17.81,99.25,17.2z"/>
	<path class="st0" d="M117.7,11.14c1.44,1.33,2.15,3.08,2.15,5.26c0,2.09-0.7,3.86-2.07,5.32c-1.37,1.48-3.19,2.22-5.43,2.22
		c-2.09,0-3.86-0.68-5.3-2.01c-1.46-1.33-2.18-3.06-2.18-5.24c0-2.09,0.7-3.87,2.07-5.34c1.37-1.46,3.19-2.2,5.43-2.2
		C114.47,9.15,116.24,9.81,117.7,11.14z M108.87,11.29c-0.82,1.2-1.23,2.87-1.23,4.96c0,2.09,0.49,3.84,1.46,5.26
		c0.97,1.42,2.18,2.11,3.59,2.11c1.29,0,2.34-0.61,3.17-1.82s1.22-2.87,1.22-4.96s-0.49-3.84-1.46-5.26
		c-0.97-1.41-2.18-2.11-3.59-2.11C110.75,9.47,109.7,10.08,108.87,11.29z"/>
	<path class="st0" d="M130.22,9.79l-0.82-0.17V9.49h5.07v0.13l-0.55,0.13c-0.61,0.15-1.03,0.36-1.27,0.61
		c-0.25,0.27-0.57,0.89-0.97,1.88l-4.67,11.7h-0.21l-4.81-12.31c-0.32-0.82-0.38-0.99-0.65-1.37s-0.59-0.44-1.16-0.51l-0.76-0.08
		V9.49h6.82v0.17l-0.72,0.06c-0.76,0.06-1.14,0.3-1.14,0.7c0,0.17,0.04,0.4,0.15,0.7l3.38,9.31h0.08l1.52-4.14
		c1.2-3.23,1.79-5.15,1.79-5.77C131.3,10.19,131.13,9.98,130.22,9.79z"/>
	<path class="st0" d="M134.4,9.49h11.02l-0.06,3.44l-0.15,0.04c-0.44-1.12-0.8-1.84-1.1-2.13c-0.57-0.57-1.65-0.91-3.19-0.97
		l-2.09-0.08v6.44l1.63-0.06c1.27-0.06,1.86-0.17,2.34-0.65c0.27-0.27,0.49-0.72,0.63-1.29l0.13-0.53l0.15,0.04l-0.06,5.24
		l-0.17,0.04l-0.13-0.53c-0.17-0.68-0.36-1.12-0.55-1.31c-0.36-0.36-1.12-0.57-2.26-0.59l-1.71-0.04v4.12
		c0,1.04,0.04,1.71,0.13,2.05c0.11,0.44,0.32,0.59,0.89,0.59c2.01,0,3.36-0.17,4.05-0.53c0.4-0.19,0.68-0.38,0.84-0.55
		c0.36-0.36,0.84-1.08,1.46-2.15l0.15,0.04l-0.78,3.48H134.4v-0.17l0.76-0.06c0.78-0.06,0.95-0.17,1.06-0.59
		c0.08-0.34,0.13-1.04,0.13-2.11v-8.24c0-1.08-0.04-1.77-0.13-2.11c-0.11-0.42-0.27-0.53-1.06-0.59l-0.76-0.06V9.49z"/>
	<path class="st0" d="M156.06,9.87h-0.97c-1.06,0-1.77,0.11-2.18,0.3c-0.57,0.27-1.22,1.03-1.65,1.67
		c-0.23,0.32-0.59,0.87-1.08,1.63l-0.13-0.04l0.97-4.65l0.17,0.02l0.04,0.36c0.02,0.36,0.15,0.42,0.63,0.42h11.21
		c0.61,0,0.68-0.08,0.82-0.49l0.11-0.32h0.17l0.08,4.67l-0.13,0.02c-0.68-1.92-1.16-2.89-1.84-3.23c-0.49-0.23-1.33-0.36-2.56-0.36
		h-1.2v10.79c0,1.08,0.04,1.77,0.13,2.11c0.11,0.42,0.34,0.57,1.12,0.59l1.12,0.06v0.17h-7.22v-0.17l1.12-0.06
		c0.78-0.02,1.01-0.17,1.12-0.59c0.08-0.34,0.13-1.04,0.13-2.11V9.87z"/>
	<path class="st0" d="M178.21,11.14c1.44,1.33,2.15,3.08,2.15,5.26c0,2.09-0.7,3.86-2.07,5.32c-1.37,1.48-3.19,2.22-5.43,2.22
		c-2.09,0-3.86-0.68-5.3-2.01c-1.46-1.33-2.18-3.06-2.18-5.24c0-2.09,0.7-3.87,2.07-5.34c1.37-1.46,3.19-2.2,5.43-2.2
		C174.98,9.15,176.75,9.81,178.21,11.14z M169.38,11.29c-0.82,1.2-1.23,2.87-1.23,4.96c0,2.09,0.49,3.84,1.46,5.26
		c0.97,1.42,2.18,2.11,3.59,2.11c1.29,0,2.34-0.61,3.17-1.82s1.22-2.87,1.22-4.96s-0.49-3.84-1.46-5.26
		c-0.97-1.41-2.18-2.11-3.59-2.11C171.26,9.47,170.2,10.08,169.38,11.29z"/>
	<path class="st0" d="M195.69,9.41c0.95,0.17,1.44,0.25,1.46,0.25c0.15,0,0.25-0.08,0.32-0.23l0.06-0.23h0.19
		c0.23,1.77,0.38,3.42,0.42,4.92l-0.17,0.02c-0.61-1.71-1.25-2.87-1.86-3.48c-0.78-0.78-1.82-1.16-3.15-1.16
		c-1.48,0-2.72,0.57-3.72,1.69c-1.01,1.12-1.52,2.79-1.52,5c0,2.09,0.51,3.82,1.52,5.24c0.99,1.41,2.24,2.13,3.72,2.13
		c1.25,0,2.34-0.46,3.25-1.37c0.84-0.84,1.56-2.13,2.18-3.86l0.19,0.08c-0.04,0.7-0.13,1.54-0.27,2.53
		c-0.15,0.99-0.27,1.56-0.36,1.71c-1.8,0.82-3.51,1.25-5.17,1.25c-2.11,0-3.95-0.66-5.49-1.99c-1.54-1.31-2.32-3.04-2.32-5.22
		c0-2.09,0.76-3.87,2.3-5.34c1.54-1.46,3.44-2.2,5.74-2.2C193.83,9.15,194.74,9.24,195.69,9.41z"/>
	<path class="st0" d="M211.56,16.5h-6.95v4.16c0,1.08,0.04,1.77,0.13,2.11c0.11,0.42,0.27,0.53,1.06,0.59l0.87,0.06v0.17h-6.48
		v-0.17l0.76-0.06c0.78-0.06,0.95-0.17,1.06-0.59c0.08-0.34,0.13-1.04,0.13-2.11v-8.24c0-1.08-0.04-1.77-0.13-2.11
		c-0.11-0.42-0.27-0.53-1.06-0.59l-0.76-0.06V9.49h6.48v0.17l-0.87,0.06c-0.78,0.06-0.95,0.17-1.06,0.59
		c-0.08,0.34-0.13,1.03-0.13,2.11v3.65h6.95v-3.65c0-1.08-0.04-1.77-0.13-2.11c-0.11-0.42-0.27-0.53-1.06-0.59l-0.87-0.06V9.49H216
		v0.17l-0.76,0.06c-0.78,0.06-0.95,0.17-1.06,0.59c-0.08,0.34-0.13,1.03-0.13,2.11v8.24c0,1.08,0.04,1.77,0.13,2.11
		c0.11,0.42,0.27,0.53,1.06,0.59l0.76,0.06v0.17h-6.48v-0.17l0.87-0.06c0.78-0.06,0.95-0.17,1.06-0.59
		c0.08-0.34,0.13-1.04,0.13-2.11V16.5z"/>
	<path class="st0" d="M230.25,11.14c1.44,1.33,2.15,3.08,2.15,5.26c0,2.09-0.7,3.86-2.07,5.32c-1.37,1.48-3.19,2.22-5.43,2.22
		c-2.09,0-3.87-0.68-5.3-2.01c-1.46-1.33-2.18-3.06-2.18-5.24c0-2.09,0.7-3.87,2.07-5.34c1.37-1.46,3.19-2.2,5.43-2.2
		C227.02,9.15,228.79,9.81,230.25,11.14z M221.42,11.29c-0.82,1.2-1.23,2.87-1.23,4.96c0,2.09,0.49,3.84,1.46,5.26
		c0.97,1.42,2.18,2.11,3.59,2.11c1.29,0,2.34-0.61,3.17-1.82c0.82-1.2,1.23-2.87,1.23-4.96s-0.49-3.84-1.46-5.26
		c-0.97-1.41-2.18-2.11-3.59-2.11C223.3,9.47,222.24,10.08,221.42,11.29z"/>
	<path class="st0" d="M246.86,11.14c1.44,1.33,2.15,3.08,2.15,5.26c0,2.09-0.7,3.86-2.07,5.32c-1.37,1.48-3.19,2.22-5.43,2.22
		c-2.09,0-3.87-0.68-5.3-2.01c-1.46-1.33-2.18-3.06-2.18-5.24c0-2.09,0.7-3.87,2.07-5.34c1.37-1.46,3.19-2.2,5.43-2.2
		C243.63,9.15,245.4,9.81,246.86,11.14z M238.03,11.29c-0.82,1.2-1.22,2.87-1.22,4.96c0,2.09,0.49,3.84,1.46,5.26
		c0.97,1.42,2.18,2.11,3.59,2.11c1.29,0,2.34-0.61,3.17-1.82c0.82-1.2,1.23-2.87,1.23-4.96s-0.49-3.84-1.46-5.26
		c-0.97-1.41-2.17-2.11-3.59-2.11C239.91,9.47,238.86,10.08,238.03,11.29z"/>
	<path class="st0" d="M259.38,13.23l-0.17,0.04c-0.99-2.85-2.07-3.7-3.36-3.7c-1.42,0-2.26,0.84-2.26,2.01
		c0,1.25,0.78,2.09,2.72,3.59c1.27,0.97,2.15,1.79,2.68,2.45c0.53,0.66,0.78,1.44,0.78,2.34c0,1.14-0.42,2.07-1.27,2.79
		c-0.84,0.74-1.99,1.1-3.4,1.1c-1.14,0-2.41-0.29-3.82-0.91c-0.23-1.23-0.36-2.49-0.4-3.8l0.17-0.06c0.57,1.65,1.16,2.79,1.77,3.44
		s1.35,0.99,2.24,0.99c1.54,0,2.58-0.99,2.58-2.43c0-0.61-0.21-1.2-0.65-1.75c-0.44-0.55-1.25-1.27-2.41-2.18
		c-0.57-0.44-0.97-0.78-1.25-1.01c-0.27-0.23-0.57-0.53-0.91-0.91c-0.7-0.76-0.95-1.52-0.95-2.47c0-0.97,0.4-1.79,1.2-2.49
		c0.8-0.7,1.9-1.04,3.29-1.04c1.2,0,2.24,0.21,3.1,0.65C259.1,10,259.19,11.1,259.38,13.23z"/>
	<path class="st0" d="M261.57,9.49h11.02l-0.06,3.44l-0.15,0.04c-0.44-1.12-0.8-1.84-1.1-2.13c-0.57-0.57-1.65-0.91-3.19-0.97
		l-2.09-0.08v6.44l1.63-0.06c1.27-0.06,1.86-0.17,2.34-0.65c0.27-0.27,0.49-0.72,0.63-1.29l0.13-0.53l0.15,0.04l-0.06,5.24
		l-0.17,0.04l-0.13-0.53c-0.17-0.68-0.36-1.12-0.55-1.31c-0.36-0.36-1.12-0.57-2.26-0.59l-1.71-0.04v4.12
		c0,1.04,0.04,1.71,0.13,2.05c0.11,0.44,0.32,0.59,0.89,0.59c2.01,0,3.36-0.17,4.05-0.53c0.4-0.19,0.68-0.38,0.84-0.55
		c0.36-0.36,0.84-1.08,1.46-2.15l0.15,0.04l-0.78,3.48h-11.17v-0.17l0.76-0.06c0.78-0.06,0.95-0.17,1.06-0.59
		c0.08-0.34,0.13-1.04,0.13-2.11v-8.24c0-1.08-0.04-1.77-0.13-2.11c-0.11-0.42-0.27-0.53-1.06-0.59l-0.76-0.06V9.49z"/>
	<path class="st0" d="M286.51,9.75l-0.61-0.13V9.49h5.07v0.13l-0.55,0.13c-0.57,0.15-0.99,0.34-1.25,0.59
		c-0.27,0.28-0.68,0.89-1.25,1.84l-2.85,4.69v3.8c0,1.08,0.04,1.77,0.13,2.11c0.11,0.42,0.28,0.53,1.06,0.59l0.76,0.06v0.17h-6.38
		v-0.17l0.76-0.06c0.78-0.06,0.95-0.17,1.06-0.59c0.08-0.34,0.13-1.04,0.13-2.11v-1.79c0-1.1-0.08-1.58-0.53-2.41l-2.66-4.82
		c-0.44-0.78-0.78-1.29-1.01-1.5c-0.25-0.21-0.7-0.36-1.35-0.42l-0.57-0.06V9.49h7.03v0.17L283,9.7c-0.91,0.08-1.37,0.25-1.37,0.53
		c0,0.21,0.17,0.61,0.51,1.23l2.68,4.92h0.08l1.69-3.02c0.82-1.46,1.22-2.43,1.22-2.91C287.82,10.15,287.37,9.91,286.51,9.75z"/>
	<path class="st0" d="M303.48,11.14c1.44,1.33,2.15,3.08,2.15,5.26c0,2.09-0.7,3.86-2.07,5.32c-1.37,1.48-3.19,2.22-5.43,2.22
		c-2.09,0-3.87-0.68-5.3-2.01c-1.46-1.33-2.18-3.06-2.18-5.24c0-2.09,0.7-3.87,2.07-5.34c1.37-1.46,3.19-2.2,5.43-2.2
		C300.25,9.15,302.03,9.81,303.48,11.14z M294.65,11.29c-0.82,1.2-1.22,2.87-1.22,4.96c0,2.09,0.49,3.84,1.46,5.26
		c0.97,1.42,2.18,2.11,3.59,2.11c1.29,0,2.34-0.61,3.17-1.82c0.82-1.2,1.23-2.87,1.23-4.96s-0.49-3.84-1.46-5.26
		c-0.97-1.41-2.17-2.11-3.59-2.11C296.53,9.47,295.48,10.08,294.65,11.29z"/>
	<path class="st0" d="M308.69,18.85v-6.42c0-1.08-0.04-1.77-0.13-2.11c-0.11-0.42-0.27-0.53-1.06-0.59l-0.76-0.06V9.49h6.91v0.17
		l-1.22,0.06c-0.78,0.02-1.01,0.17-1.12,0.59c-0.08,0.34-0.13,1.03-0.13,2.11v6.42c0,2.7,1.65,4.2,3.93,4.2
		c2.6,0,4.12-1.73,4.12-4.16c0-1.2,0-2.11-0.02-2.75l-0.06-3.74c-0.02-1.04-0.13-1.69-0.27-1.99c-0.15-0.3-0.57-0.51-1.25-0.65
		l-0.74-0.15V9.49h5.13v0.13l-0.57,0.13c-0.66,0.15-1.06,0.38-1.22,0.7c-0.17,0.32-0.28,0.97-0.3,1.96l-0.21,6.5
		c-0.06,1.63-0.59,2.87-1.63,3.74c-1.03,0.87-2.26,1.29-3.67,1.29C310.95,23.94,308.69,22.23,308.69,18.85z"/>
	<path class="st0" d="M330.71,16.29c2.39,3.78,3.82,5.91,4.33,6.42c0.49,0.49,0.87,0.57,2.07,0.74v0.15l-0.57,0.02
		c-0.61,0.02-2.03,0.13-2.53,0.13c-0.66,0-1.14-0.13-1.44-0.38c-0.3-0.23-0.7-0.76-1.18-1.56l-2.34-3.78
		c-0.59-0.99-0.74-1.1-1.08-1.1c-0.06,0-0.57,0.04-0.91,0.04h-0.08v3.7c0,1.08,0.04,1.77,0.13,2.11c0.11,0.42,0.3,0.53,1.14,0.59
		l0.99,0.06v0.17h-6.69v-0.17l0.76-0.06c0.78-0.06,0.95-0.17,1.06-0.59c0.08-0.34,0.13-1.04,0.13-2.11v-8.24
		c0-1.08-0.04-1.79-0.15-2.2c-0.11-0.4-0.38-0.51-1.16-0.59l-0.63-0.06V9.41c1.22,0.04,2.7,0.06,4.43,0.06
		c2.39,0,4.08,0.34,5.11,1.01c1.03,0.68,1.54,1.52,1.54,2.53C333.63,14.43,332.66,15.53,330.71,16.29z M327.04,9.75
		c-0.04,0.53-0.06,1.31-0.06,2.37v4.6c1.18,0.02,2.18-0.3,2.98-0.93c0.78-0.61,1.18-1.5,1.18-2.66
		C331.14,11.27,329.81,9.77,327.04,9.75z"/>
	<path class="st0" d="M339.66,9.77V9.6c2.01-0.13,3.51-0.19,4.52-0.19c4.58,0,6.86,1.35,6.86,4.03c0,1.25-0.57,2.24-1.71,3
		c-1.16,0.76-2.64,1.14-4.46,1.12v-0.13c2.47-0.34,3.63-1.88,3.63-4.01c0-2.2-1.54-3.74-4.35-3.76c-0.04,0.53-0.06,1.31-0.06,2.37
		v8.64c0,1.08,0.04,1.77,0.13,2.11c0.11,0.42,0.3,0.53,1.14,0.59l0.99,0.06v0.17h-6.69v-0.17l0.76-0.06
		c0.78-0.06,0.95-0.17,1.06-0.59c0.08-0.34,0.13-1.04,0.13-2.11v-8.15c0-1.08-0.04-1.77-0.13-2.11c-0.11-0.42-0.38-0.59-1.22-0.61
		L339.66,9.77z"/>
	<path class="st0" d="M363.48,16.5h-6.95v4.16c0,1.08,0.04,1.77,0.13,2.11c0.11,0.42,0.27,0.53,1.06,0.59l0.87,0.06v0.17h-6.48
		v-0.17l0.76-0.06c0.78-0.06,0.95-0.17,1.06-0.59c0.08-0.34,0.13-1.04,0.13-2.11v-8.24c0-1.08-0.04-1.77-0.13-2.11
		c-0.11-0.42-0.27-0.53-1.06-0.59l-0.76-0.06V9.49h6.48v0.17l-0.87,0.06c-0.78,0.06-0.95,0.17-1.06,0.59
		c-0.08,0.34-0.13,1.03-0.13,2.11v3.65h6.95v-3.65c0-1.08-0.04-1.77-0.13-2.11c-0.11-0.42-0.27-0.53-1.06-0.59l-0.87-0.06V9.49h6.48
		v0.17l-0.76,0.06c-0.78,0.06-0.95,0.17-1.06,0.59c-0.08,0.34-0.13,1.03-0.13,2.11v8.24c0,1.08,0.04,1.77,0.13,2.11
		c0.11,0.42,0.27,0.53,1.06,0.59l0.76,0.06v0.17h-6.48v-0.17l0.87-0.06c0.78-0.06,0.95-0.17,1.06-0.59
		c0.08-0.34,0.13-1.04,0.13-2.11V16.5z"/>
	<path class="st0" d="M382.16,11.14c1.44,1.33,2.15,3.08,2.15,5.26c0,2.09-0.7,3.86-2.07,5.32c-1.37,1.48-3.19,2.22-5.43,2.22
		c-2.09,0-3.87-0.68-5.3-2.01c-1.46-1.33-2.18-3.06-2.18-5.24c0-2.09,0.7-3.87,2.07-5.34c1.37-1.46,3.19-2.2,5.43-2.2
		C378.93,9.15,380.71,9.81,382.16,11.14z M373.34,11.29c-0.82,1.2-1.23,2.87-1.23,4.96c0,2.09,0.49,3.84,1.46,5.26
		c0.97,1.42,2.18,2.11,3.59,2.11c1.29,0,2.34-0.61,3.17-1.82c0.82-1.2,1.23-2.87,1.23-4.96s-0.49-3.84-1.46-5.26
		c-0.97-1.41-2.18-2.11-3.59-2.11C375.22,9.47,374.16,10.08,373.34,11.29z"/>
	<path class="st0" d="M391.37,9.87h-0.97c-1.06,0-1.77,0.11-2.18,0.3c-0.57,0.27-1.22,1.03-1.65,1.67
		c-0.23,0.32-0.59,0.87-1.08,1.63l-0.13-0.04l0.97-4.65l0.17,0.02l0.04,0.36c0.02,0.36,0.15,0.42,0.63,0.42h11.21
		c0.61,0,0.68-0.08,0.82-0.49l0.11-0.32h0.17l0.08,4.67l-0.13,0.02c-0.68-1.92-1.16-2.89-1.84-3.23c-0.49-0.23-1.33-0.36-2.55-0.36
		h-1.2v10.79c0,1.08,0.04,1.77,0.13,2.11c0.11,0.42,0.34,0.57,1.12,0.59l1.12,0.06v0.17H389v-0.17l1.12-0.06
		c0.78-0.02,1.01-0.17,1.12-0.59c0.08-0.34,0.13-1.04,0.13-2.11V9.87z"/>
	<path class="st0" d="M413.52,11.14c1.44,1.33,2.15,3.08,2.15,5.26c0,2.09-0.7,3.86-2.07,5.32c-1.37,1.48-3.19,2.22-5.43,2.22
		c-2.09,0-3.87-0.68-5.3-2.01c-1.46-1.33-2.18-3.06-2.18-5.24c0-2.09,0.7-3.87,2.07-5.34c1.37-1.46,3.19-2.2,5.43-2.2
		C410.28,9.15,412.06,9.81,413.52,11.14z M404.69,11.29c-0.82,1.2-1.22,2.87-1.22,4.96c0,2.09,0.49,3.84,1.46,5.26
		c0.97,1.42,2.18,2.11,3.59,2.11c1.29,0,2.34-0.61,3.17-1.82c0.82-1.2,1.23-2.87,1.23-4.96s-0.49-3.84-1.46-5.26
		c-0.97-1.41-2.17-2.11-3.59-2.11C406.57,9.47,405.51,10.08,404.69,11.29z"/>
	<path class="st0" d="M418.51,23.77c-0.82,0-1.39-0.57-1.39-1.35c0-0.76,0.61-1.39,1.35-1.39c0.84,0,1.44,0.59,1.44,1.35
		C419.91,23.2,419.3,23.77,418.51,23.77z"/>
</g>
</svg>
