<?xml version="1.0" encoding="utf-8"?>
<!-- Generator: Adobe Illustrator 21.0.0, SVG Export Plug-In . SVG Version: 6.00 Build 0)  -->
<svg version="1.1" id="图层_1" xmlns="http://www.w3.org/2000/svg" xmlns:xlink="http://www.w3.org/1999/xlink" x="0px" y="0px"
	 viewBox="0 0 370.59 342.55" style="enable-background:new 0 0 370.59 342.55;" xml:space="preserve">
<style type="text/css">
	.st0{fill:#EFBD4C;}
	.st1{fill:#DB6350;}
</style>
<g>
	<g>
		<path class="st0" d="M152.45,294.37c1.15,0,2.16,0,3.27,0c0,6.66,0,13.23,0,19.95c-0.71,0.22-1.4,0.44-2.11,0.67
			c1.05,0.54,9.57,0.65,11.66,0.07c-0.62-0.14-0.96-0.26-1.31-0.29c-1.68-0.16-1.76-0.21-1.77-1.85c-0.01-4.23,0-8.45,0-12.68
			c0-1.9,0-3.8,0-5.83c2.65,0,5.16,0,7.84,0c0,6.59,0,13.2,0,19.93c-0.59,0.21-1.21,0.43-1.82,0.65c0.01,0.14,0.01,0.27,0.02,0.41
			c3.8,0.05,7.6,0.02,11.41,0.02c0.02-0.15,0.05-0.3,0.07-0.45c-0.93-0.14-1.86-0.29-2.91-0.45c0-6.72,0-13.35,0-20.17
			c2.15,0,4.31,0,6.61,0c0.35-1.21,0.66-2.29,1.02-3.56c-2.67,0-5.14,0-7.77,0c-0.12-3.67-0.15-7.16,1.43-10.44
			c0.27-0.55,0.72-1.06,1.2-1.45c0.66-0.53,1.39-0.56,1.94,0.26c0.75,1.13,1.65,2.14,1.54,3.71c-0.09,1.25,0.53,2.41,1.74,2.98
			c1.23,0.59,2.22-0.09,3.14-0.86c1.29-1.08,2.57-2.16,3.88-3.21c1.3-1.05,1.81-0.97,2.81,0.41c1.1,1.49,1.62,3.19,1.71,5.02
			c0.08,1.76-0.73,3.04-2.38,3.65c-1.78,0.66-3.61,1.2-5.43,1.78c-2.77,0.88-3.01,1.24-2.65,4.1c0.28,2.18,0.55,4.36,0.85,6.54
			c0.06,0.42,0.24,0.81,0.37,1.22c0.13-0.01,0.27-0.02,0.4-0.04c0.06-1.06,0.2-2.12,0.16-3.17c-0.05-1.28,0.5-1.88,1.72-2.14
			c1.47-0.31,2.91-0.76,4.35-1.18c4.01-1.19,5.63-3.31,5.67-7.44c0.05-6.72-5.23-11.81-10.66-12.05c-0.62-0.03-1.27-0.13-1.85-0.36
			c-4.28-1.66-8.16-0.89-11.71,1.89c-0.27,0.21-0.53,0.43-0.79,0.65c-3.18-3.7-10.66-2.37-13.69,0.48
			c-2.09,1.97-3.81,4.27-4.06,7.08c-0.25,2.79-2.06,3.91-4.12,5.35c-1.08-5.95-4.2-10.31-9.46-12.99
			c-4.74-2.41-9.78-2.75-14.87-1.43c-9.23,2.39-14.94,11.97-13.34,22.09c1.39,8.78,9.11,15.7,20.58,15
			C144.21,315.68,153.58,307.73,152.45,294.37z M144.19,298.85c-0.05,0.86-0.05,2.25-0.22,3.63c-0.41,3.36-1.21,6.6-3.32,9.36
			c-3.16,4.14-8.47,4.62-12.3,1.11c-1.69-1.55-2.87-3.46-3.77-5.56c-2.03-4.75-2.36-9.73-1.85-14.8c0.36-3.56,1.26-6.94,3.49-9.83
			c3.04-3.94,8.2-4.53,11.89-1.18c1.38,1.25,2.52,2.87,3.43,4.51C143.64,289.87,144.15,294.06,144.19,298.85z M162.18,290.75
			c-0.22-3.04,0.05-5.88,1.13-8.61c0.21-0.53,0.53-1.04,0.9-1.47c1.12-1.33,2.18-1.28,3.22,0.12c1.23,1.67,2.43,3.36,3.61,5
			c-0.31,1.67-0.62,3.3-0.93,4.96C167.48,290.75,164.94,290.75,162.18,290.75z"/>
		<path class="st1" d="M285.12,275.34c9.6,0.97,14.87-2.38,17.11-11c0.99,5.67,3.44,10.06,9.36,11.17
			c5.95,1.12,10.15-1.61,13.08-6.96c1.44,3.42,3.41,6.1,7.04,6.96c3.64,0.87,6.65-0.61,9.59-3.06c-0.06,1.31-0.11,2.28-0.16,3.48
			c3.26-0.4,6.36-1.2,9.49-1.88c-0.01-0.14-0.01-0.28-0.02-0.42c-0.81-0.09-1.62-0.19-2.61-0.3c0-12.14,0-24.2,0-36.56
			c-3.07,1.09-5.88,2.08-8.66,3.06c0.01,0.21-0.03,0.38,0.03,0.42c2.01,1.52,2.21,3.63,2.04,5.91c-0.09,1.19-0.02,2.4-0.02,3.64
			c-11.31-2.83-19.31,7.14-16.92,17.78c-1.77,2.75-6.91,4.38-10.82,2.69c-3.66-1.58-5.62-6.04-4.88-11.42c5.09,0,10.2,0,15.38,0
			c0.65-2,0.26-3.69-0.74-5.25c-1.74-2.71-4.38-3.88-7.46-4.11c-6.07-0.45-10.94,2.89-12.84,8.73c-0.2,0.6-0.33,1.22-0.7,1.88
			c-0.11-0.62-0.21-1.23-0.34-1.85c-0.9-4.18-2.97-7.39-7.37-8.55c-2.56-0.68-4.93-0.07-7.13,1.28c-0.78,0.48-1.5,1.03-2.44,1.67
			c0.07-1.28,0.13-2.34,0.21-3.69c-3.08,1.1-5.97,2.13-8.79,3.13c-0.01,0.27-0.04,0.35-0.01,0.37c2.13,1.63,2.04,3.92,2.03,6.27
			c-0.06,8.34-0.02,16.67-0.03,25.01c0,0.74-0.07,1.47-0.11,2.22c-0.75,0.24-1.37,0.43-1.99,0.62c0.02,0.09,0.04,0.18,0.05,0.27
			c3.84,0,7.67,0,11.51,0c0.02-0.1,0.03-0.19,0.05-0.29c-0.96-0.19-1.92-0.37-2.92-0.57C285.12,282.37,285.12,278.86,285.12,275.34z
			 M341.51,271.36c-2.57,1.69-5.79,1.39-7.67-0.91c-0.93-1.14-1.71-2.46-2.27-3.82c-0.92-2.24-0.84-4.65-0.61-7.02
			c0.26-2.68,0.93-5.24,2.76-7.34c1.4-1.6,3.04-2.06,4.81-1.38c1.78,0.69,2.58,2.21,2.7,3.93c0.22,3.39,0.22,6.8,0.28,10.21
			C341.54,267.16,341.51,269.3,341.51,271.36z M284.98,253.81c2.79-1.59,5.34-1.33,7.48,0.66c1.3,1.21,2.17,2.72,2.57,4.44
			c0.83,3.56,0.79,7.13-0.43,10.59c-0.47,1.32-1.26,2.63-2.21,3.67c-2.26,2.48-5.8,1.67-6.9-1.51c-0.28-0.81-0.45-1.69-0.47-2.54
			c-0.06-2.71-0.03-5.43-0.04-8.15C284.98,258.55,284.98,256.13,284.98,253.81z M318.26,257.49c-3.21,0.14-6.31,0.27-9.43,0.41
			c0.25-2.9,1.23-5.04,2.8-6.31c2.26-1.83,4.75-1.32,6.02,1.28C318.32,254.22,318.65,255.66,318.26,257.49z"/>
		<path class="st1" d="M57.85,291.73c-0.36-0.62-0.61-0.95-0.75-1.32c-1.51-3.96-5.57-6.03-10.47-4.71
			c-7.12,1.91-11.14,9.98-8.38,16.82c1.63,4.04,5.48,6.21,9.92,5.59c0.4-0.06,0.8-0.22,1.19-0.2c2.92,0.15,4.64-1.48,5.75-3.92
			c0.96-2.1,1.76-4.27,2.75-6.36c0.64-1.34,1.33-2.71,2.25-3.86c4.38-5.49,9.8-9.45,16.74-11.07c0.16-0.04,0.34-0.04,0.58-0.07
			c3.09,3.28,4.87,7.24,5.77,11.62c1.11,5.38,0.95,10.65-1.12,15.85c-0.74,1.85-0.95,3.92-1.24,5.92c-0.09,0.66,0.16,1.54,0.58,2.06
			c1.17,1.43,2.41,2.83,3.8,4.03c2.9,2.5,6.6,2.76,10.03,0.89c6.33-3.47,8.44-12.49,4.31-18.41c-2.41-3.46-6.25-4.71-10.23-3.33
			c-0.69,0.24-1.37,0.52-2.25,0.85c-0.09-0.93-0.24-1.66-0.22-2.39c0.21-5.46-0.43-10.83-1.34-16.22c-0.46-2.7-0.2-5.54-0.14-8.31
			c0.01-0.61,0.49-1.29,0.9-1.81c1.59-1.99,3.2-3.96,4.87-5.88c1.07-1.23,1.8-2.56,1.67-4.23c-0.09-1.16,0.1-2.09,1.45-2.29
			c0-1.13,0-2.1,0-3.18c-1.28-0.36-1.56-1.46-1.73-2.89c-2.99,3.46-5.81,6.74-8.9,10.32c-0.08-0.84-0.17-1.36-0.18-1.88
			c-0.17-8.33-0.22-16.67-0.54-25c-0.36-9.6-0.95-19.18-1.46-28.77c-0.04-0.72-0.19-1.44-0.35-2.55c-2.3,4.33-3.89,8.46-4.14,12.97
			c-0.24,4.27-0.25,8.56-0.3,12.84c-0.14,11.98-0.27,23.96-0.35,35.94c-0.01,1.83-0.45,3.39-1.69,4.76
			c-0.78,0.85-1.45,1.81-2.15,2.72c-1.34,1.75-2.99,3.16-4.64,4.63c-2.75,2.45-5.16,5.28-7.69,7.97
			C59.41,289.72,58.74,290.65,57.85,291.73z M55.89,294.44c-0.03,5.17-4.18,9.96-9.3,10.72c-3.12,0.46-5.58-1.16-6.39-4.2
			c-1.48-5.55,2.35-11.94,8-13.24c0.93-0.21,1.96-0.29,2.89-0.13C54.14,288.14,55.91,290.74,55.89,294.44z M99,311.47
			c0.01,3.52-1.49,6.81-4.03,8.83c-2.71,2.16-5.9,1.86-8.16-0.75c-3.83-4.44-3.02-12.12,1.65-15.66c2.72-2.06,5.98-1.73,8.2,0.86
			C98.31,306.67,99,308.96,99,311.47z M82.5,272.84c-0.86-0.51-1.6-0.94-2.51-1.48C81.94,270.71,82.17,270.85,82.5,272.84z
			 M79.6,272.42c0.83,0.49,1.59,0.95,2.64,1.58C79.74,274.33,79.57,274.21,79.6,272.42z"/>
		<path class="st0" d="M159.27,198.68c-0.39-0.17-0.52-0.28-0.66-0.28c-3.87-0.01-7.74-0.01-11.72-0.01
			c-2.22,9.11-6.61,17.32-9.98,25.99c-3.43-8.64-7.4-16.98-10.21-25.91c-3.96,0-7.99,0-12.02,0c-0.04,0.08-0.07,0.16-0.11,0.23
			c0.53,0.23,1.04,0.5,1.59,0.67c1.7,0.54,2.93,1.63,3.69,3.2c0.26,0.55,0.44,1.21,0.4,1.81c-0.49,7.91-1.02,15.81-1.56,23.72
			c-0.25,3.7-0.79,4.34-4.37,5.49c-0.38,0.12-0.74,0.27-1.19,0.44c1.1,0.55,10.49,0.7,13.07,0.02c-0.6-0.2-1.21-0.4-1.81-0.58
			c-2.62-0.79-3.21-1.46-3.24-4.18c-0.05-4.69,0-9.37,0-14.06c0-2.89,0-5.78,0-8.67c0.13-0.04,0.26-0.08,0.39-0.12
			c4.04,9.42,8.09,18.84,12.07,28.12c0.4,0,0.46,0.01,0.51,0c0.06-0.01,0.13-0.03,0.16-0.07c0.14-0.17,0.31-0.34,0.39-0.54
			c3.82-9.48,7.64-18.96,11.71-28.43c0.07,1.78,0.16,3.56,0.21,5.34c0.19,6.3,0.41,12.6,0.55,18.91c0.07,3.37-0.12,3.52-3.49,4.06
			c-0.21,0.03-0.41,0.13-0.69,0.22c1.25,0.57,14.67,0.63,16.59,0.01c-1.05-0.2-1.79-0.41-2.55-0.48c-1.33-0.13-1.94-0.9-2.11-2.13
			c-0.15-1.09-0.31-2.18-0.35-3.28c-0.28-7.46-0.53-14.91-0.78-22.37c-0.01-0.35,0-0.69,0-1.04c0.02-3.82,0.63-4.61,4.26-5.61
			C158.38,199.07,158.71,198.9,159.27,198.68z"/>
		<path class="st0" d="M131.17,158.34c0.9,0.19,1.6,0.36,2.31,0.49c1.36,0.24,2.38,0.94,2.86,2.24c0.73,2.01,1.42,4.03,2.07,6.06
			c0.13,0.4,0.06,0.94-0.1,1.34c-1.89,4.97-3.82,9.92-5.75,14.87c-0.05,0.14-0.19,0.25-0.41,0.53c-0.21-0.53-0.39-0.93-0.53-1.34
			c-2.14-6.47-4.28-12.94-6.41-19.42c-1.17-3.55-0.93-3.94,2.71-4.53c0.33-0.05,0.66-0.13,1.09-0.21
			c-1.18-0.57-15.84-0.69-17.77,0.04c0.73,0.14,1.45,0.29,2.19,0.41c1.36,0.22,2.36,0.89,2.89,2.2c0.66,1.66,1.37,3.31,1.96,5
			c3.14,9.12,6.26,18.25,9.38,27.37c0.15,0.44,0.31,0.87,0.46,1.27c1.13,0.6,1.45-0.1,1.77-0.94c2.06-5.27,4.14-10.54,6.21-15.81
			c0.82-2.1,1.64-4.2,2.47-6.29c0.18-0.46,0.42-0.91,0.76-1.64c2.68,8.47,5.27,16.64,7.83,24.71c1.32,0.53,1.53-0.34,1.84-1.1
			c1.84-4.55,3.69-9.1,5.53-13.66c1.97-4.87,3.94-9.75,5.92-14.62c0.3-0.75,0.69-1.47,0.98-2.22c0.88-2.27,2.45-3.74,4.84-4.29
			c0.28-0.06,0.55-0.19,0.81-0.3c0.1-0.04,0.18-0.12,0.28-0.19c-1.01-0.56-11.22-0.63-12.98-0.01c1.1,0.34,2.02,0.6,2.93,0.91
			c1.72,0.58,2.05,1.03,1.64,2.83c-0.39,1.74-0.92,3.46-1.5,5.15c-1.8,5.24-3.65,10.47-5.49,15.7c-0.11,0.31-0.26,0.61-0.49,1.17
			c-0.86-2.77-1.65-5.3-2.43-7.83c-1.27-4.14-2.53-8.29-3.79-12.43c-0.1-0.33-0.2-0.66-0.3-1c-0.93-3.21-0.63-3.67,2.7-4.2
			c0.45-0.07,0.89-0.14,1.46-0.23C147.83,157.78,132.92,157.71,131.17,158.34z"/>
		<path class="st0" d="M113.85,239.34c0.73,0.13,1.45,0.26,2.18,0.38c1.78,0.3,2.12,0.64,2.29,2.45c0.12,1.32,0.24,2.65,0.25,3.98
			c0.01,7.52-0.01,15.04-0.04,22.57c-0.01,1.1-0.1,2.2-0.24,3.29c-0.18,1.45-0.64,1.87-2.09,2.1c-0.75,0.12-1.51,0.24-2.26,0.35
			c0.01,0.11,0.02,0.23,0.04,0.34c0.37,0.04,0.74,0.11,1.1,0.11c5.73-0.01,11.46,0.08,17.18-0.08c2.11-0.06,4.29-0.43,6.28-1.1
			c4.99-1.69,7.62-6.87,6.26-11.81c-0.77-2.8-2.77-4.47-5.19-5.74c-1.06-0.56-2.22-0.92-3.56-1.46c0.56-0.27,1-0.44,1.41-0.68
			c1.23-0.74,2.59-1.35,3.63-2.3c2.73-2.49,2.68-6.5,0.03-9.1c-1.58-1.55-3.56-2.44-5.67-2.81c-2.72-0.48-5.49-0.82-8.25-0.93
			c-4.04-0.17-8.1-0.08-12.15-0.09c-0.38,0-0.76,0.09-1.13,0.15C113.88,239.07,113.87,239.2,113.85,239.34z M126.23,256.39
			c1.73,0.26,3.47,0.34,5.09,0.81c3.43,0.98,5.51,3.31,5.98,6.88c0.64,4.81-1.99,10.25-8.38,10.05c-1.97-0.06-2.6-0.46-2.65-2.4
			C126.15,266.76,126.23,261.8,126.23,256.39z M126.17,239.78c3.62-0.2,6.51,0.56,8.3,3.66c1.74,3.02,1.72,6.15-0.25,9.01
			c-1.92,2.79-4.93,3.26-8.05,3.25C126.17,250.33,126.17,245.15,126.17,239.78z"/>
		<path class="st0" d="M242.31,191.59c-0.1,1.21-0.18,2.18-0.27,3.4c3.3-0.29,6.4-1.25,9.57-1.83c0.01-0.13,0.01-0.27,0.02-0.4
			c-0.83-0.11-1.66-0.23-2.65-0.36c0-12.13,0-24.19,0-36.55c-3.06,1.08-5.86,2.08-8.8,3.12c0.18,0.33,0.25,0.63,0.44,0.77
			c1.57,1.17,1.87,2.79,1.76,4.62c-0.09,1.48-0.02,2.98-0.02,4.57c-1.41-0.14-2.6-0.32-3.79-0.37c-7.2-0.31-12.2,5.41-13.27,10.96
			c-0.54,2.84-0.4,5.65,0.54,8.39c2.33,6.8,9.05,8.95,14.89,4.79C241.19,192.37,241.65,192.05,242.31,191.59z M242.33,190.81
			c-1.04,0.24-1.96,0.59-2.91,0.66c-2.7,0.2-5.22-1.48-6.46-4.61c-1.85-4.69-1.63-9.4,0.62-13.92c1.29-2.58,3.19-3.62,5.2-3.19
			c2.07,0.44,3.41,2.03,3.5,4.97C242.45,179.97,242.33,185.23,242.33,190.81z"/>
		<path class="st1" d="M252.71,285.96c-0.81,0.23-1.45,0.41-2.2,0.62c1.11,0.53,9.2,0.67,11.66,0.02c-0.89-0.18-1.79-0.35-2.82-0.55
			c0-3.6,0-7.14,0-10.72c2.38,0,4.74,0.35,6.95-0.07c5.17-1,9.39-5.88,10.05-11.11c0.33-2.61,0.22-5.19-0.62-7.71
			c-2.28-6.79-9.02-9-14.86-4.87c-0.42,0.3-0.83,0.61-1.4,1.02c0-1.18,0-2.22,0-3.59c-3.06,1.08-5.93,2.1-8.77,3.11
			c0.04,0.29,0.01,0.45,0.07,0.5c1.71,1.36,2,3.15,1.98,5.25c-0.09,8.67-0.04,17.35-0.04,26.02
			C252.71,284.51,252.71,285.14,252.71,285.96z M259.07,253.82c3.72-2.07,6.64-0.66,8.14,1.31c0.76,0.99,1.45,2.12,1.81,3.3
			c1.22,4,1,7.99-0.56,11.87c-0.4,1-1,2.01-1.77,2.73c-0.76,0.7-1.81,1.31-2.81,1.45c-2.32,0.33-4.03-1.15-4.48-3.82
			c-0.27-1.64-0.3-3.33-0.32-5C259.04,261.69,259.07,257.71,259.07,253.82z"/>
		<path class="st0" d="M185.83,234.35c5.81,0,11.62,0,17.43,0c0.01-0.11,0.02-0.23,0.04-0.34c-1.1-0.14-2.19-0.31-3.29-0.42
			c-1.16-0.11-1.78-0.71-1.89-1.87c-0.06-0.63-0.2-1.26-0.2-1.89c-0.02-4.22-0.01-8.44-0.01-12.92c2.63,0.17,5.21-0.07,7.69,0.84
			c1.31,0.48,1.94,1.59,2.4,2.81c0.33,0.89,0.64,1.79,0.96,2.68c0.14-0.02,0.29-0.04,0.43-0.06c0-4.49,0-8.98,0-13.82
			c-0.29,0.65-0.55,1.05-0.66,1.49c-0.78,3.22-2.96,4.68-6.12,4.9c-1.49,0.1-2.99,0.14-4.61,0.21c0-5.48,0-10.88,0-16.49
			c3.8,0.04,7.58-0.05,11.13,1.66c1.45,0.7,2.19,2.01,2.89,3.35c0.62,1.19,1.19,2.41,1.78,3.62c0.12-0.03,0.24-0.07,0.37-0.1
			c0-3.13,0-6.27,0-9.51c-9.39,0-18.85,0-28.31,0c-0.03,0.11-0.06,0.22-0.08,0.33c0.55,0.12,1.09,0.27,1.64,0.34
			c2.23,0.29,2.62,0.68,2.8,2.95c0.02,0.23,0.03,0.46,0.03,0.69c0,9.08,0.01,18.16,0,27.24c0,0.52-0.05,1.04-0.12,1.56
			c-0.16,1.15-0.71,1.91-1.99,2.01c-0.79,0.06-1.58,0.26-2.36,0.39C185.79,234.11,185.81,234.23,185.83,234.35z"/>
		<path class="st1" d="M206.18,250.93c-0.05-4.28-0.43-8.53-1-12.77c-0.15-0.11-0.31-0.21-0.46-0.32c-0.19,0.55-0.38,1.1-0.52,1.48
			c-2.8-0.42-5.18-0.83-7.58-1.12c-3.48-0.42-6.92-0.25-10.3,0.79c-10.47,3.22-16.31,14.34-12.18,25.3
			c2.31,6.14,7.26,9.47,13.45,10.85c6.34,1.41,12.38,0.1,18.23-2.68c0.83-3.7,1.38-7.42,1.48-11.18c-0.14-0.05-0.29-0.1-0.43-0.14
			c-0.25,0.48-0.47,0.97-0.74,1.43c-1.62,2.72-3.11,5.54-4.94,8.12c-1.51,2.12-3.75,3.42-6.39,3.82c-3.47,0.52-6.38-0.57-8.72-3.19
			c-1.8-2.02-3.04-4.36-3.81-6.93c-1.57-5.21-1.69-10.51-0.3-15.75c1.22-4.64,3.89-8.21,8.83-9.29c4.22-0.93,8,0.16,10.58,3.81
			c1.42,2.01,2.46,4.3,3.66,6.47c0.26,0.47,0.45,0.97,0.68,1.45C205.87,251.02,206.02,250.97,206.18,250.93z"/>
		<path class="st0" d="M197.89,168.68c-3.19,0.31-6.2,0.6-9.21,0.89c-0.02,0.11-0.04,0.22-0.05,0.33c0.81,0.37,1.62,0.74,2.59,1.19
			c0.05,0.87,0.15,1.78,0.15,2.69c0.02,4.34,0.01,8.68,0.01,13.02c0,0.46,0.01,0.93,0,1.39c-0.21,6.4,4.76,7.73,8.95,5.67
			c1.8-0.88,3.43-2.11,5.22-3.24c0,1.3,0,2.64,0,4.25c3.21-0.67,6.31-1.32,9.41-1.97c0-0.13,0-0.26-0.01-0.38
			c-0.8-0.1-1.6-0.2-2.53-0.31c-0.54-2.63-0.18-5.23-0.25-7.8c-0.06-2.54-0.01-5.09-0.01-7.64c0-2.6,0-5.19,0-8.06
			c-2.95,0.28-5.96,0.56-8.98,0.84c-0.03,0.12-0.06,0.23-0.09,0.35c0.42,0.2,0.82,0.48,1.26,0.6c1.1,0.28,1.43,0.99,1.43,2.05
			c-0.02,5.55-0.01,11.11-0.01,16.76c-1.65,1.04-3.34,1.74-5.37,1.24c-1.18-0.29-1.98-0.94-2.2-2.16c-0.15-0.85-0.32-1.71-0.32-2.57
			c-0.02-5.09,0-10.19,0-15.28C197.89,169.97,197.89,169.41,197.89,168.68z"/>
		<path class="st1" d="M250.81,262.24c-0.19-7.46-5.35-12.76-12.53-12.77c-7.41-0.01-12.92,5.45-13.03,12.86
			c-0.03,2.18,0.3,4.26,1.2,6.24c2.29,5.01,6.96,7.75,12.28,7.21c6.02-0.61,10.35-4.24,11.57-9.77
			C250.56,264.77,250.64,263.49,250.81,262.24z M243.88,263.3c-0.08,1.27-0.11,2.37-0.22,3.45c-0.21,2.02-0.64,3.99-1.77,5.73
			c-1.87,2.86-4.98,3.04-6.97,0.28c-0.86-1.19-1.5-2.61-1.92-4.02c-1.23-4.18-1.21-8.45-0.27-12.67c0.33-1.47,1.09-2.94,2.01-4.14
			c1.49-1.94,4.08-1.96,5.75-0.16c0.73,0.78,1.29,1.77,1.74,2.75C243.54,257.36,243.83,260.4,243.88,263.3z"/>
		<path class="st0" d="M164.03,181.94c0.03,6.05,3.69,11.29,9.03,12.52c10.24,2.36,17.47-5.42,16.31-14.73
			c-0.7-5.58-4.18-9.65-8.9-10.8C171.6,166.78,163.97,172.81,164.03,181.94z M182.54,182.36c0,0.87,0.06,1.74-0.01,2.6
			c-0.19,2.19-0.53,4.36-1.68,6.29c-1.97,3.31-5.35,3.42-7.47,0.19c-0.59-0.91-1.08-1.92-1.41-2.95c-1.46-4.57-1.48-9.2-0.35-13.83
			c0.25-1.04,0.76-2.07,1.34-2.98c1.78-2.77,4.92-2.85,6.87-0.2c0.54,0.73,0.96,1.58,1.31,2.42
			C182.26,176.61,182.7,179.44,182.54,182.36z"/>
		<path class="st0" d="M227.97,221.88c-2.18,0.82-4.3,1.58-6.38,2.42c-1.17,0.48-2.33,1.02-3.42,1.66c-2.03,1.19-2.74,2.96-2.2,5.15
			c0.52,2.1,2.3,3.64,4.4,3.86c2.15,0.22,3.97-0.51,5.62-1.81c0.63-0.5,1.26-1.01,1.99-1.6c0.84,2.34,2.44,3.72,4.91,3.65
			c2.47-0.07,4.27-1.43,5.72-3.38c-0.23-0.16-0.34-0.28-0.4-0.26c-2.63,0.86-3.86,0.03-3.89-2.71c-0.04-4.05,0.02-8.09-0.03-12.14
			c-0.01-1.26-0.13-2.54-0.37-3.78c-0.41-2.14-1.75-3.46-3.9-3.91c-1.73-0.36-3.46-0.35-5.11,0.35c-3.01,1.29-5.66,3.11-7.86,5.56
			c-0.27,0.3-0.52,0.62-0.73,0.97c-0.85,1.42-0.26,2.68,1.39,2.55c1.5-0.12,2.97-0.68,4.63-1.08c-0.49-1.58-0.88-2.82-1.26-4.04
			c3.38-2,6.53-0.53,6.84,3.19C228.09,218.28,227.97,220.08,227.97,221.88z M227.96,230.77c-2.31,1.21-4.12,0.9-5.11-0.77
			c-1.16-1.96-0.57-4.34,1.46-5.5c1.13-0.65,2.34-1.15,3.65-1.78C227.96,225.54,227.96,228.12,227.96,230.77z"/>
		<path class="st0" d="M167.88,267.83c-1.7,1.74-3.67,2.72-5.97,3.06c-4.18,0.62-7.74-1.48-9.15-5.46c-0.74-2.1-0.92-4.25-0.63-6.62
			c5.19,0,10.31,0,15.46,0c0.7-2.14,0.17-3.91-0.98-5.53c-1.77-2.49-4.34-3.58-7.29-3.78c-6.51-0.45-11.82,3.62-13.17,10.1
			c-0.97,4.66-0.28,8.95,2.96,12.66c4.76,5.45,15.44,4.92,18.98-4.08C168.11,268.15,168.04,268.09,167.88,267.83z M152.27,257.91
			c0.25-3.23,1.51-5.62,3.42-6.76c1.56-0.93,3.18-0.89,4.31,0.24c1.62,1.62,2.02,3.64,1.83,6.08
			C158.62,257.61,155.53,257.76,152.27,257.91z"/>
		<path class="st0" d="M264.05,218.27c5.28,0,10.41,0,15.59,0c0.59-2.3,0.06-4.22-1.36-5.9c-2.28-2.72-5.37-3.49-8.73-3.35
			c-7.24,0.29-11.06,6.44-11.62,11.54c-0.34,3.09-0.08,6.11,1.5,8.91c4.07,7.19,13.88,7.91,18.91,1.36c0.75-0.98,1.31-2.1,1.95-3.15
			c-0.1-0.08-0.21-0.16-0.31-0.24c-0.38,0.3-0.76,0.59-1.13,0.89c-2.46,2.02-5.31,2.53-8.32,1.95c-2.83-0.55-4.68-2.4-5.67-5.08
			C264.05,222.98,263.85,220.72,264.05,218.27z M264.15,217.41c0.46-2.75,1.15-5.04,3.29-6.56c1.79-1.27,3.72-1.11,4.95,0.46
			c1.26,1.6,1.76,3.44,1.36,5.7C270.6,217.15,267.51,217.28,264.15,217.41z"/>
		<path class="st0" d="M172.75,227.8c-1.89-5.75-3.66-11.12-5.49-16.7c1.24-0.31,2.18-0.55,3.12-0.79c-0.02-0.1-0.03-0.19-0.05-0.29
			c-4.34,0-8.69,0-13.23,0c0.26,0.28,0.37,0.49,0.47,0.49c1.91,0.01,2.65,1.27,3.24,2.83c2.7,7.13,5.44,14.24,8.21,21.34
			c0.35,0.89,0.36,1.65-0.08,2.47c-0.69,1.27-1.31,2.57-2.02,3.83c-0.46,0.82-1.15,1.04-2.06,0.66c-0.85-0.36-1.73-0.65-2.62-0.89
			c-1.38-0.38-2.37,0.16-2.86,1.5c-0.55,1.5-0.06,3.38,1.11,4.25c1.24,0.92,3.25,0.83,4.48-0.36c0.78-0.75,1.51-1.63,2.02-2.58
			c1.32-2.43,2.65-4.88,3.72-7.43c2.97-7.14,5.86-14.32,8.68-21.53c0.76-1.95,1.73-3.51,3.88-4.03c0.2-0.05,0.36-0.23,0.84-0.56
			c-3.22,0-6.1,0-8.98,0c-0.04,0.06-0.07,0.12-0.11,0.18c0.59,0.24,1.17,0.51,1.77,0.73c1.05,0.38,1.46,1.06,1.13,2.15
			c-0.43,1.44-0.81,2.89-1.3,4.31c-1.02,2.95-2.09,5.87-3.15,8.81C173.31,226.61,173.11,227,172.75,227.8z"/>
		<path class="st0" d="M214.22,159.1c2.99,1.8,2.65,4.37,2.64,6.86c-0.02,8.33-0.01,16.65-0.01,24.98c0,0.68-0.09,1.35-0.13,2.02
			c-0.77,0.24-1.39,0.43-2.02,0.63c0.01,0.09,0.03,0.17,0.04,0.26c3.52,0,7.05,0,10.57,0c0.03-0.07,0.06-0.14,0.1-0.21
			c-0.63-0.22-1.26-0.43-2.04-0.7c0-12.26,0-24.53,0-37.08C220.33,156.93,217.52,157.93,214.22,159.1z"/>
		<path class="st0" d="M257.92,229.24c-1.37,0.62-2.65,1.43-4.04,1.79c-3.92,1-7.8-0.86-9.61-4.69c-1.91-4.02-1.88-8.22-0.05-12.24
			c0.61-1.34,1.87-2.48,3.07-3.41c1.23-0.96,2.33-0.64,3.29,0.63c0.94,1.24,1.78,2.56,2.71,3.82c1.14,1.53,2.09,1.81,3.35,1.07
			c1.34-0.79,1.93-2.47,1.36-3.9c-0.51-1.28-1.54-2.01-2.77-2.45c-7.35-2.62-15.94,0.65-18.07,9.32c-1.17,4.76-0.23,9.22,3.23,12.88
			c4.96,5.24,14.05,3.99,17.5-2.35C257.95,229.58,257.91,229.4,257.92,229.24z"/>
		<path class="st1" d="M217.06,255.31c0.13-2.25,0.24-4.14,0.37-6.33c-3.15,1.14-6.03,2.18-9.33,3.38c2.95,1.7,2.62,4.21,2.6,6.65
			c-0.03,4.28-0.01,8.56-0.01,12.83c0,0.63,0,1.26,0,1.98c-0.77,0.25-1.44,0.48-2.12,0.7c0.01,0.08,0.02,0.17,0.03,0.25
			c3.85,0,7.71,0,11.56,0c0.02-0.08,0.04-0.17,0.06-0.25c-0.93-0.16-1.85-0.32-2.92-0.5c-0.07-0.67-0.2-1.28-0.2-1.89
			c-0.02-4.74-0.02-9.48,0-14.22c0.01-2.22,1.66-3.5,3.8-2.87c1.26,0.38,2.46,0.96,3.78,1.49c1.69-1.21,2.26-2.94,1.99-4.95
			c-0.22-1.64-1.73-2.59-3.49-2.29c-1.91,0.33-3.17,1.58-4.23,3.08C218.36,253.23,217.81,254.15,217.06,255.31z"/>
		<path class="st0" d="M187.33,308.14c-2.25-0.03-4.06,1.68-4.09,3.83c-0.02,2.17,1.73,3.87,4.01,3.89c2.17,0.02,3.95-1.74,4-3.94
			C191.31,309.89,189.52,308.17,187.33,308.14z"/>
		<path class="st1" d="M92.57,241.94c0.56,0,1.04,0,1.62,0c0-1.22,0-2.34,0-3.58c-0.53-0.05-1.01-0.1-1.62-0.17
			C92.57,239.5,92.57,240.67,92.57,241.94z"/>
		<path class="st1" d="M94.2,248c-0.56-0.09-1.05-0.17-1.71-0.28c0,1.3,0,2.47,0,3.8c0.52,0.03,1.05,0.06,1.71,0.1
			C94.2,250.39,94.2,249.31,94.2,248z"/>
		<path class="st1" d="M94.14,199.88c-0.59,0-1.04,0-1.62,0c0,1.17,0,2.28,0,3.53c0.5,0.09,0.98,0.17,1.62,0.28
			C94.14,202.38,94.14,201.21,94.14,199.88z"/>
		<path class="st1" d="M94.16,103.76c-0.55-0.05-1.04-0.09-1.65-0.15c0,1.31,0,2.49,0,3.8c0.54,0.03,1.02,0.06,1.65,0.1
			C94.16,106.22,94.16,105.05,94.16,103.76z"/>
		<path class="st1" d="M94.19,228.71c-0.57-0.04-1.02-0.07-1.61-0.12c0,1.26,0,2.42,0,3.7c0.52,0,1,0,1.61,0
			C94.19,231.13,94.19,230.02,94.19,228.71z"/>
		<path class="st1" d="M94.17,219.1c-0.57,0-1.06,0-1.66,0c0,1.21,0,2.33,0,3.57c0.53,0.04,1.02,0.07,1.66,0.12
			C94.17,221.57,94.17,220.45,94.17,219.1z"/>
		<path class="st1" d="M92.5,193.88c0.61,0.03,1.05,0.05,1.64,0.08c0-1.25,0-2.42,0-3.7c-0.55,0-1.04,0-1.64,0
			C92.5,191.44,92.5,192.57,92.5,193.88z"/>
		<path class="st1" d="M92.49,132.49c0,1.33,0,2.46,0,3.72c0.53,0.04,1.01,0.08,1.64,0.13c0-1.24,0-2.35,0-3.68
			C93.64,132.61,93.12,132.55,92.49,132.49z"/>
		<path class="st1" d="M92.51,117.02c0.63,0,1.07,0,1.66,0c0-1.17,0-2.28,0-3.58c-0.5-0.05-1.02-0.1-1.66-0.17
			C92.51,114.57,92.51,115.7,92.51,117.02z"/>
		<path class="st1" d="M94.16,171.08c-0.57-0.03-1.02-0.05-1.61-0.07c0,1.18,0,2.29,0,3.54c0.48,0.07,0.97,0.13,1.61,0.22
			C94.16,173.5,94.16,172.39,94.16,171.08z"/>
		<path class="st1" d="M94.17,213.32c0-1.45,0-2.57,0-3.74c-0.6,0-1.09,0-1.68,0c0,1.15,0,2.21,0,3.44
			C92.98,213.11,93.51,213.2,94.17,213.32z"/>
		<path class="st1" d="M92.52,145.95c0.68-0.09,1.16-0.16,1.7-0.23c0-1.19,0-2.25,0-3.42c-0.59,0-1.08,0-1.7,0
			C92.52,143.45,92.52,144.57,92.52,145.95z"/>
		<path class="st1" d="M94.22,267.23c-0.64,0-1.09,0-1.69,0c0,1.14,0,2.23,0,3.44c0.55,0,1.07,0,1.69,0
			C94.22,269.5,94.22,268.45,94.22,267.23z"/>
		<path class="st1" d="M92.57,184.18c0.53,0,1.01,0,1.6,0c0-1.13,0-2.19,0-3.38c-0.51-0.05-0.98-0.09-1.6-0.15
			C92.57,181.88,92.57,182.98,92.57,184.18z"/>
		<path class="st1" d="M94.13,123.09c-0.55,0-1.04,0-1.63,0c0,1.17,0,2.24,0,3.47c0.53,0.04,1.01,0.07,1.63,0.11
			C94.13,125.41,94.13,124.29,94.13,123.09z"/>
		<path class="st1" d="M94.13,165.19c0-1.4,0-2.52,0-3.75c-0.52-0.03-0.94-0.06-1.51-0.09c0,1.22,0,2.34,0,3.64
			C93.02,165.04,93.49,165.1,94.13,165.19z"/>
		<path class="st1" d="M94.21,151.91c-0.57-0.03-1.01-0.05-1.58-0.07c0,1.18,0,2.27,0,3.48c0.51,0,0.99,0,1.58,0
			C94.21,154.22,94.21,153.17,94.21,151.91z"/>
	</g>
</g>
<path class="st1" d="M94.14,94.32c-0.59,0-1.04,0-1.62,0c0,1.17,0,2.28,0,3.53c0.5,0.09,0.98,0.17,1.62,0.28
	C94.14,96.82,94.14,95.65,94.14,94.32z"/>
<path class="st1" d="M94.16-1.8c-0.55-0.05-1.04-0.09-1.65-0.15c0,1.31,0,2.49,0,3.8c0.54,0.03,1.02,0.06,1.65,0.1
	C94.16,0.66,94.16-0.51,94.16-1.8z"/>
<path class="st1" d="M92.5,88.32c0.61,0.03,1.05,0.05,1.64,0.08c0-1.25,0-2.42,0-3.7c-0.55,0-1.04,0-1.64,0
	C92.5,85.89,92.5,87.01,92.5,88.32z"/>
<path class="st1" d="M92.49,26.93c0,1.33,0,2.46,0,3.72c0.53,0.04,1.01,0.08,1.64,0.13c0-1.24,0-2.35,0-3.68
	C93.64,27.05,93.12,26.99,92.49,26.93z"/>
<path class="st1" d="M92.51,11.46c0.63,0,1.07,0,1.66,0c0-1.17,0-2.28,0-3.58c-0.5-0.05-1.02-0.1-1.66-0.17
	C92.51,9.01,92.51,10.14,92.51,11.46z"/>
<path class="st1" d="M94.16,65.52c-0.57-0.03-1.02-0.05-1.61-0.07c0,1.18,0,2.29,0,3.54c0.48,0.07,0.97,0.13,1.61,0.22
	C94.16,67.94,94.16,66.83,94.16,65.52z"/>
<path class="st1" d="M92.52,40.39c0.68-0.09,1.16-0.16,1.7-0.23c0-1.19,0-2.25,0-3.42c-0.59,0-1.08,0-1.7,0
	C92.52,37.89,92.52,39.01,92.52,40.39z"/>
<path class="st1" d="M92.57,78.62c0.53,0,1.01,0,1.6,0c0-1.13,0-2.19,0-3.38c-0.51-0.05-0.98-0.09-1.6-0.15
	C92.57,76.32,92.57,77.43,92.57,78.62z"/>
<path class="st1" d="M94.13,17.53c-0.55,0-1.04,0-1.63,0c0,1.17,0,2.24,0,3.47c0.53,0.04,1.01,0.07,1.63,0.11
	C94.13,19.85,94.13,18.74,94.13,17.53z"/>
<path class="st1" d="M94.13,59.63c0-1.4,0-2.52,0-3.75c-0.52-0.03-0.94-0.06-1.51-0.09c0,1.22,0,2.34,0,3.64
	C93.02,59.48,93.49,59.54,94.13,59.63z"/>
<path class="st1" d="M94.21,46.35c-0.57-0.03-1.01-0.05-1.58-0.07c0,1.18,0,2.27,0,3.48c0.51,0,0.99,0,1.58,0
	C94.21,48.66,94.21,47.61,94.21,46.35z"/>
</svg>
