<?xml version="1.0" encoding="utf-8"?>
<!-- Generator: Adobe Illustrator 21.0.0, SVG Export Plug-In . SVG Version: 6.00 Build 0)  -->
<svg version="1.1" id="图层_1" xmlns="http://www.w3.org/2000/svg" xmlns:xlink="http://www.w3.org/1999/xlink" x="0px" y="0px"
	 viewBox="0 0 429.33 34" style="enable-background:new 0 0 429.33 34;" xml:space="preserve">
<style type="text/css">
	.st0{fill:#EFBD4C;}
</style>
<g>
	<path class="st0" d="M89.84,9.42l-0.72-0.15V9.12h5.97v0.15l-0.65,0.15c-0.67,0.17-1.17,0.4-1.47,0.7
		c-0.32,0.32-0.8,1.04-1.47,2.16l-3.36,5.52v4.47c0,1.27,0.05,2.09,0.15,2.49c0.12,0.5,0.32,0.62,1.24,0.7l0.9,0.07v0.2h-7.51v-0.2
		l0.9-0.07c0.92-0.07,1.12-0.2,1.24-0.7c0.1-0.4,0.15-1.22,0.15-2.49v-2.11c0-1.29-0.1-1.86-0.62-2.83l-3.13-5.67
		c-0.52-0.92-0.92-1.52-1.19-1.77c-0.3-0.25-0.82-0.42-1.59-0.5l-0.67-0.07v-0.2h8.28v0.2l-0.57,0.05c-1.07,0.1-1.62,0.3-1.62,0.62
		c0,0.25,0.2,0.72,0.6,1.44l3.16,5.79h0.1l1.99-3.55c0.97-1.71,1.44-2.86,1.44-3.43C91.38,9.89,90.86,9.61,89.84,9.42z"/>
	<path class="st0" d="M112.58,11.06c1.69,1.57,2.54,3.63,2.54,6.19c0,2.46-0.82,4.55-2.44,6.26c-1.62,1.74-3.75,2.61-6.39,2.61
		c-2.46,0-4.55-0.79-6.24-2.36c-1.72-1.57-2.56-3.6-2.56-6.16c0-2.46,0.82-4.55,2.44-6.29c1.62-1.71,3.75-2.58,6.39-2.58
		C108.78,8.72,110.87,9.49,112.58,11.06z M102.19,11.23c-0.97,1.42-1.44,3.38-1.44,5.84s0.57,4.52,1.72,6.19
		c1.14,1.67,2.56,2.49,4.23,2.49c1.52,0,2.76-0.72,3.73-2.14c0.97-1.42,1.44-3.38,1.44-5.84s-0.57-4.52-1.71-6.19
		c-1.14-1.67-2.56-2.49-4.23-2.49C104.41,9.09,103.16,9.81,102.19,11.23z"/>
	<path class="st0" d="M121.48,20.13v-7.56c0-1.27-0.05-2.09-0.15-2.49c-0.12-0.5-0.32-0.62-1.24-0.7l-0.89-0.07v-0.2h8.13v0.2
		l-1.44,0.07c-0.92,0.03-1.19,0.2-1.32,0.7c-0.1,0.4-0.15,1.22-0.15,2.49v7.56c0,3.18,1.94,4.95,4.62,4.95
		c3.06,0,4.85-2.04,4.85-4.9c0-1.42,0-2.49-0.02-3.23l-0.07-4.4c-0.02-1.22-0.15-1.99-0.32-2.34c-0.17-0.35-0.67-0.6-1.47-0.77
		l-0.87-0.17V9.12h6.04v0.15l-0.67,0.15c-0.77,0.17-1.24,0.45-1.44,0.82s-0.32,1.14-0.35,2.31l-0.25,7.66
		c-0.07,1.91-0.7,3.38-1.91,4.4c-1.22,1.02-2.66,1.52-4.32,1.52C124.14,26.12,121.48,24.11,121.48,20.13z"/>
	<path class="st0" d="M151.23,25.57v0.15h-5.97v-0.15l0.65-0.15c0.72-0.17,1.24-0.42,1.54-0.75s0.67-1.04,1.09-2.19l4.37-11.53
		l-0.3-0.65l0.02-0.1c0.37-0.17,0.8-0.47,1.32-0.87c0.52-0.37,0.85-0.67,1.02-0.89l0.12,0.03l4.8,14.74c0.3,0.92,0.57,1.49,0.8,1.71
		c0.22,0.25,0.67,0.42,1.29,0.5l0.82,0.1v0.2h-7.76v-0.2l0.94-0.1c0.82-0.08,1.24-0.35,1.24-0.8c0-0.17-0.05-0.45-0.17-0.82
		l-1.44-4.57h-5.12l-0.4,1.14c-0.75,2.14-1.12,3.5-1.12,4.13c0,0.4,0.2,0.65,1.27,0.87L151.23,25.57z M154.09,14.29
		c-0.37-1.22-0.7-2.14-0.94-2.76l-2.46,7.21h4.8L154.09,14.29z"/>
	<path class="st0" d="M175.17,17.12c2.81,4.45,4.5,6.96,5.1,7.56c0.57,0.57,1.02,0.67,2.44,0.87v0.17l-0.67,0.02
		c-0.72,0.03-2.39,0.15-2.98,0.15c-0.77,0-1.34-0.15-1.69-0.45c-0.35-0.27-0.82-0.89-1.39-1.84l-2.76-4.45
		c-0.7-1.17-0.87-1.29-1.27-1.29c-0.07,0-0.67,0.05-1.07,0.05h-0.1v4.35c0,1.27,0.05,2.09,0.15,2.49c0.12,0.5,0.35,0.62,1.34,0.7
		l1.17,0.07v0.2h-7.88v-0.2l0.9-0.07c0.92-0.07,1.12-0.2,1.24-0.7c0.1-0.4,0.15-1.22,0.15-2.49v-9.69c0-1.27-0.05-2.11-0.17-2.58
		c-0.12-0.47-0.45-0.6-1.37-0.7l-0.75-0.07v-0.2c1.44,0.05,3.18,0.08,5.22,0.08c2.81,0,4.8,0.4,6.02,1.19
		c1.22,0.79,1.81,1.79,1.81,2.98C178.6,14.93,177.46,16.23,175.17,17.12z M170.85,9.42c-0.05,0.62-0.07,1.54-0.07,2.78v5.42
		c1.39,0.03,2.56-0.35,3.5-1.09c0.92-0.72,1.39-1.76,1.39-3.13C175.67,11.21,174.1,9.44,170.85,9.42z"/>
	<path class="st0" d="M184.99,9.12h12.98l-0.07,4.05l-0.17,0.05c-0.52-1.32-0.94-2.16-1.29-2.51c-0.67-0.67-1.94-1.07-3.75-1.14
		l-2.46-0.1v7.58l1.91-0.07c1.49-0.08,2.19-0.2,2.76-0.77c0.32-0.32,0.57-0.84,0.75-1.52l0.15-0.62l0.17,0.05l-0.07,6.17l-0.2,0.05
		l-0.15-0.62c-0.2-0.79-0.42-1.32-0.65-1.54c-0.42-0.42-1.32-0.67-2.66-0.7l-2.01-0.05v4.85c0,1.22,0.05,2.01,0.15,2.41
		c0.12,0.52,0.37,0.7,1.04,0.7c2.36,0,3.95-0.2,4.77-0.62c0.47-0.22,0.8-0.45,0.99-0.65c0.42-0.42,0.99-1.27,1.72-2.54l0.17,0.05
		l-0.92,4.1h-13.15v-0.2l0.9-0.07c0.92-0.07,1.12-0.2,1.24-0.7c0.1-0.4,0.15-1.22,0.15-2.49v-9.69c0-1.27-0.05-2.09-0.15-2.49
		c-0.12-0.5-0.32-0.62-1.24-0.7l-0.9-0.07V9.12z"/>
	<path class="st0" d="M222.92,11.03l3.18,10.51h0.1l1.94-5.12c1.27-3.41,1.91-5.42,1.91-6.09c0-0.4-0.2-0.65-1.27-0.87l-0.97-0.2
		V9.12h5.97v0.15l-0.65,0.15c-0.72,0.17-1.24,0.42-1.54,0.72c-0.3,0.32-0.67,1.04-1.14,2.19l-5.62,13.79h-0.25l-3.73-11.93
		l-4.72,11.93h-0.25l-4.82-14.49c-0.3-0.84-0.57-1.42-0.8-1.69c-0.25-0.27-0.7-0.45-1.32-0.52l-0.9-0.1v-0.2h7.9v0.2l-0.85,0.07
		c-0.9,0.08-1.34,0.35-1.34,0.82c0,0.17,0.05,0.45,0.17,0.82l3.41,10.51h0.1l3.16-8.1l-0.55-1.81c-0.27-0.82-0.52-1.39-0.8-1.69
		c-0.27-0.27-0.72-0.45-1.34-0.52l-0.89-0.1v-0.2h7.9v0.2l-0.85,0.07c-0.9,0.08-1.34,0.35-1.34,0.82
		C222.75,10.39,222.8,10.66,222.92,11.03z"/>
	<path class="st0" d="M236.29,9.12h12.98l-0.07,4.05l-0.17,0.05c-0.52-1.32-0.94-2.16-1.29-2.51c-0.67-0.67-1.94-1.07-3.75-1.14
		l-2.46-0.1v7.58l1.91-0.07c1.49-0.08,2.19-0.2,2.76-0.77c0.32-0.32,0.57-0.84,0.75-1.52l0.15-0.62l0.17,0.05l-0.07,6.17l-0.2,0.05
		l-0.15-0.62c-0.2-0.79-0.42-1.32-0.65-1.54c-0.42-0.42-1.32-0.67-2.66-0.7l-2.01-0.05v4.85c0,1.22,0.05,2.01,0.15,2.41
		c0.12,0.52,0.37,0.7,1.04,0.7c2.36,0,3.95-0.2,4.77-0.62c0.47-0.22,0.8-0.45,0.99-0.65c0.42-0.42,0.99-1.27,1.72-2.54l0.17,0.05
		l-0.92,4.1h-13.15v-0.2l0.9-0.07c0.92-0.07,1.12-0.2,1.24-0.7c0.1-0.4,0.15-1.22,0.15-2.49v-9.69c0-1.27-0.05-2.09-0.15-2.49
		c-0.12-0.5-0.32-0.62-1.24-0.7l-0.9-0.07V9.12z"/>
	<path class="st0" d="M254.46,25.72v-0.2l0.9-0.07c0.92-0.07,1.12-0.2,1.24-0.7c0.1-0.4,0.15-1.22,0.15-2.49v-9.69
		c0-1.27-0.05-2.09-0.15-2.49c-0.12-0.5-0.32-0.62-1.24-0.7l-0.9-0.07v-0.2h7.51v0.2l-0.9,0.07c-0.92,0.08-1.12,0.2-1.24,0.7
		c-0.1,0.4-0.15,1.22-0.15,2.49v9.69c0,1.22,0.05,2.01,0.15,2.41c0.12,0.52,0.37,0.72,1.29,0.72c2.04,0,3.48-0.2,4.3-0.62
		c0.3-0.15,0.57-0.35,0.85-0.62c0.45-0.45,1.09-1.37,1.96-2.78l0.17,0.05l-0.97,4.3H254.46z"/>
	<path class="st0" d="M284.86,9.02c1.12,0.2,1.69,0.3,1.71,0.3c0.17,0,0.3-0.1,0.37-0.27l0.07-0.27h0.22
		c0.27,2.09,0.45,4.03,0.5,5.79l-0.2,0.02c-0.72-2.01-1.47-3.38-2.19-4.1c-0.92-0.92-2.14-1.37-3.7-1.37
		c-1.74,0-3.21,0.67-4.38,1.99c-1.19,1.32-1.79,3.28-1.79,5.89c0,2.46,0.6,4.5,1.79,6.16c1.17,1.67,2.63,2.51,4.38,2.51
		c1.47,0,2.76-0.55,3.83-1.62c0.99-0.99,1.84-2.51,2.56-4.55l0.22,0.1c-0.05,0.82-0.15,1.81-0.32,2.98s-0.32,1.84-0.42,2.01
		c-2.11,0.97-4.13,1.47-6.09,1.47c-2.49,0-4.65-0.77-6.46-2.34c-1.81-1.54-2.73-3.58-2.73-6.14c0-2.46,0.9-4.55,2.71-6.29
		c1.81-1.71,4.05-2.58,6.76-2.58C282.67,8.72,283.74,8.82,284.86,9.02z"/>
	<path class="st0" d="M308.25,11.06c1.69,1.57,2.54,3.63,2.54,6.19c0,2.46-0.82,4.55-2.44,6.26c-1.62,1.74-3.75,2.61-6.39,2.61
		c-2.46,0-4.55-0.79-6.24-2.36c-1.72-1.57-2.56-3.6-2.56-6.16c0-2.46,0.82-4.55,2.44-6.29c1.62-1.71,3.75-2.58,6.39-2.58
		C304.45,8.72,306.53,9.49,308.25,11.06z M297.86,11.23c-0.97,1.42-1.44,3.38-1.44,5.84s0.57,4.52,1.72,6.19
		c1.14,1.67,2.56,2.49,4.23,2.49c1.52,0,2.76-0.72,3.73-2.14c0.97-1.42,1.44-3.38,1.44-5.84s-0.57-4.52-1.71-6.19
		c-1.14-1.67-2.56-2.49-4.23-2.49C300.07,9.09,298.83,9.81,297.86,11.23z"/>
	<path class="st0" d="M325.7,21.94l3.83-9c0.62-1.47,0.99-2.76,1.17-3.83h5.27v0.2l-0.55,0.1c-0.97,0.17-1.54,0.5-1.76,0.92
		c-0.22,0.42-0.32,1.24-0.3,2.41l0.27,9.52c0.05,1.14,0.13,1.94,0.25,2.41c0.12,0.57,0.3,0.7,1.22,0.77l0.87,0.07v0.2h-7.26v-0.2
		l0.62-0.05c0.72-0.07,1.14-0.22,1.29-0.5c0.15-0.25,0.2-0.84,0.17-1.79l-0.27-11.41l-5.79,13.94h-0.32l-5.72-13.35l-0.12,10.02
		c0,1.22,0.07,1.99,0.22,2.29c0.15,0.32,0.6,0.55,1.34,0.72l0.82,0.17v0.15h-6.04v-0.15l0.8-0.17c0.79-0.17,1.32-0.47,1.54-0.84
		c0.22-0.37,0.37-1.12,0.42-2.26l0.62-10.86c-0.52-1.12-0.99-1.64-2.06-1.96l-0.57-0.17V9.12h5.02c0.13,0.72,0.4,1.54,0.8,2.51
		L325.7,21.94z"/>
	<path class="st0" d="M340.19,9.12h12.98l-0.08,4.05l-0.17,0.05c-0.52-1.32-0.94-2.16-1.29-2.51c-0.67-0.67-1.94-1.07-3.75-1.14
		l-2.46-0.1v7.58l1.91-0.07c1.49-0.08,2.19-0.2,2.76-0.77c0.32-0.32,0.57-0.84,0.75-1.52l0.15-0.62l0.17,0.05l-0.07,6.17l-0.2,0.05
		l-0.15-0.62c-0.2-0.79-0.42-1.32-0.65-1.54c-0.42-0.42-1.32-0.67-2.66-0.7l-2.01-0.05v4.85c0,1.22,0.05,2.01,0.15,2.41
		c0.12,0.52,0.37,0.7,1.04,0.7c2.36,0,3.95-0.2,4.77-0.62c0.47-0.22,0.8-0.45,0.99-0.65c0.42-0.42,0.99-1.27,1.71-2.54l0.17,0.05
		l-0.92,4.1h-13.15v-0.2l0.89-0.07c0.92-0.07,1.12-0.2,1.24-0.7c0.1-0.4,0.15-1.22,0.15-2.49v-9.69c0-1.27-0.05-2.09-0.15-2.49
		c-0.12-0.5-0.32-0.62-1.24-0.7l-0.89-0.07V9.12z"/>
	<path class="st0" d="M360.27,25.92c-0.97,0-1.64-0.67-1.64-1.59c0-0.9,0.72-1.64,1.59-1.64c0.99,0,1.69,0.7,1.69,1.59
		C361.91,25.25,361.19,25.92,360.27,25.92z"/>
</g>
</svg>
